# xmcd
#
# Track frame offsets: 
#        182
#        9417
#        18677
#        30685
#        43467
#        55825
#        68002
#        80577
#        92902
#        106867
#        119162
#        130317
#        144050
#        157525
#        169297
#        181790
#
# Disc length: 2582 seconds
#
# Revision: 1
# Processed by: cddbd v1.5.2PL0 Copyright (c) Steve Scherf et al.
# Submitted via: ExactAudioCopyFreeDBPlugin 1.0
#
DISCID=d00a1410
DTITLE=Gladys Knight - The Early Years
DYEAR=1987
DGENRE=Soul
TTITLE0=If Ever I Shold Fall in Love
TTITLE1=Every Beat of My Heart
TTITLE2=Either Way I Lose
TTITLE3=If Hurts So Bad
TTITLE4=Letter Full of Tears
TTITLE5=Why Don't You Love Me
TTITLE6=Maybe, Maybe Baby
TTITLE7=Who Knows
TTITLE8=Giving Up
TTITLE9=Go Away, Stay Away
TTITLE10=What Will Become of Me
TTITLE11=Queen of Tears
TTITLE12=Stop and Get a Hold of Myself
TTITLE13=Tell Her You're Mine
TTITLE14=There Will Be Another Love
TTITLE15=Lovers Always Forgive
EXTD=
EXTT0=
EXTT1=
EXTT2=
EXTT3=
EXTT4=
EXTT5=
EXTT6=
EXTT7=
EXTT8=
EXTT9=
EXTT10=
EXTT11=
EXTT12=
EXTT13=
EXTT14=
EXTT15=
PLAYORDER=
